<svg xmlns="http://www.w3.org/2000/svg" fill="none" viewBox="0 0 16 16" class="hzxm3vx9i__design-iconfont" width="128" height="128">
  <path d="M8.66683 5.33325C8.66683 4.96506 8.36835 4.66658 8.00016 4.66658C7.63197 4.66658 7.3335 4.96506 7.3335 5.33325V7.33325H5.33352C4.96533 7.33325 4.66683 7.63173 4.66683 7.99992C4.66683 8.36811 4.96584 8.66658 5.33403 8.66658H7.3335V10.6666C7.3335 11.0348 7.63197 11.3333 8.00016 11.3333C8.36835 11.3333 8.66683 11.0348 8.66683 10.6666V8.66658H10.6668C11.035 8.66658 11.3335 8.36811 11.3335 7.99992C11.3335 7.63173 11.0345 7.33325 10.6663 7.33325L8.66683 7.33278V5.33325Z" fill="#CDCDCD"></path>
  <path d="M8.00016 1.33325C4.31826 1.33325 1.3335 4.31802 1.3335 7.99992C1.3335 11.6818 4.31826 14.6666 8.00016 14.6666C11.6821 14.6666 14.6668 11.6818 14.6668 7.99992C14.6668 4.31802 11.6821 1.33325 8.00016 1.33325ZM2.66683 7.99992C2.66683 5.0544 5.05464 2.66659 8.00016 2.66659C10.9457 2.66659 13.3335 5.0544 13.3335 7.99992C13.3335 10.9454 10.9457 13.3333 8.00016 13.3333C5.05464 13.3333 2.66683 10.9454 2.66683 7.99992Z" fill="#CDCDCD"></path>
</svg>